<svg version="1.1" id="Calque_1" xmlns="http://www.w3.org/2000/svg" x="0" y="0" viewBox="0 0 64 64" xml:space="preserve"><style>.st0{fill:#3a3d3c}</style><g id="XMLID_160_"><path id="XMLID_323_" class="st0" d="M32.3 2.6v-.1.1z"/><path id="XMLID_324_" class="st0" d="M32.3 2.5h.1z"/><path id="XMLID_325_" class="st0" d="M31.6 10.6c.1-.5.1-.9.1-1.4-.1.4-.1.9-.1 1.4z"/><path id="XMLID_326_" class="st0" d="M30.7 12.7z"/><path id="XMLID_329_" class="st0" d="M29.6 11.8c-.1-.8-.3-1.5-.3-2.3v-.3V9v.1c0 .1 0 .1.1.1 0 .2.1.4.1.6v.2c0 .2 0 .5-.1.7v.1c0 .1 0 .1.1.2.1.5.1 1.1.3 1.5 0 .1 0 .1.1.2 0-.1 0-.1-.1-.2v-.1c-.1-.5-.2-1-.2-1.5.1.3.1.5.2.8.1.3.1.6.2.9-.1-.7-.3-1.2-.3-1.9v-.1c.1.2.2.4.2.6 0 .6.1 1.3.2 1.9V12v.2c0 .2 0 .5.1.7 0 .1 0 .2.1.2s.1-.1.1-.1v-.1c0-.5 0-.9-.1-1.3.1.5.1.9.2 1.4 0 .3 0 .5.1.8-.1-.8-.2-1.7-.3-2.5v-.1s.1 0 .1-.1c0 .3 0 .6.1.9v.7-.2l.1.1s.1 0 .1-.1c.1.3.1.5.2.8 0-.3-.1-.7-.2-1.1 0-.3.1-.6.1-.9 0-.4 0-.9-.1-1.3v-.4h.1v.4c-.1 1.2.1 2.4.4 3.5 0 .1.1.1.1.1s.1-.1.1-.2c-.1-.6-.2-1.1-.3-1.6-.1-.4-.1-.8-.2-1.2V9.2 9c0-.4.1-.7.2-1.1v1.3s0 .1 0 0v-.1c0-.6 0-1.2.1-1.7.2-.1.3-.5.4-.8v-.3V6l.3-.9h-.1c0-.1.1-.1.1-.1h-.1c0-.1.1-.1.1-.2l.3-.6.1-.1V4c.6-.1.7-.1.7-.3.1-.1.1-.4.2-.6l-.1.2c0-.1.1-.2.1-.4.1-.2 0-.5 0-.6v.1c0 .1 0 .2-.1.3 0 0 0 .1-.1.1s-.2 0-.2.1h-.1.1v-.1-.1-.1c0-.1-.1-.3-.1-.2v.1-.1 0s-.1-.1-.1 0h-.1c0-.1 0-.1 0 0v.1c0-.1 0-.1-.1-.1V2.7h-.1L32 3h-.1s-.1 0 0-.1h-.1-.1l-.1-.1s0-.1-.1-.1v-.1h-.1c-.1 0-.2 0-.2.1h-.1c-.1 0-.2 0-.3.1h-.1c-.1 0-.1-.1-.1 0h-.1c.1 0 0 .2-.2.2h-.1c-.1 0-.1 0-.2.1V3.4c0-.2-.1-.3-.3-.3-.2 0-.4.3-.5.6-.2.9-.3 1.8-.4 2.7 0 .7 0 1.3-.1 2 0 .7.1 1.3.2 1.9.3.6.5 1 .7 1.5zM32.2 3c.1.1.1.1 0 0h.2c0 .1 0 .3-.1.4v-.1c0-.2 0-.2-.1-.3zm.1 0s0 .1 0 0c-.1 0-.1 0 0 0-.1-.1-.1-.1-.1-.2 0 .1.1.1.1 0V3zm0 1.6v-.3c.1-.1.1-.2.2-.3 0-.1 0-.1.1-.2V4c-.1.1-.2.3-.3.6zm.1-1.9zm-.2.1zm-.3 1.1v-.1c.1 0 .1-.1.2-.1l-.2.2c0 .2-.1.3-.1.4.1-.2.1-.3.1-.4zm-.2-.7c0-.1 0 0 0 0zm-.9-.4h.2-.2z"/><path id="XMLID_338_" class="st0" d="M31.7 2.7c0-.1 0-.1 0 0 0-.1 0-.1 0 0z"/><path id="XMLID_339_" class="st0" d="M32 2.7z"/><path id="XMLID_340_" class="st0" d="M40 16.8h-.2c.1.1.1.1.2 0h.3-.3z"/><path id="XMLID_341_" class="st0" d="M35.9 17.6c-.4 0-.7 0-1.2.2-.1.1-.2.1-.2.1.2 0 .4 0 .7-.1.5 0 .7-.1.7-.2z"/><path id="XMLID_342_" class="st0" d="M7.7 31.9c0-.2-.1-.3-.1-.3v.3c1 5.5 2.8 10.9 5.4 16 .1.2.2.3.2.3s0-.1-.1-.3c-2.6-5.2-4.4-10.5-5.4-16z"/><path id="XMLID_345_" class="st0" d="M57.2 34.2c.5-1.3 1-3 .9-5-.1-2-.7-4-1.8-5.7-.1-.1-.1-.2-.2-.3-.2-.5-.6-1.3-1.3-2-.3-.3-.5-.7-.8-.9-.8-1.1-1.9-2.1-3.3-3.1-.7-.5-1.5-.9-2.3-1.3-.8-.4-1.7-.7-2.5-1 .7.2 1.4.5 2 .9-1-.4-2-.8-3.1-1.1.1.1.2.1.4.2-1.7-.6-3.9-.9-5.8-.8-1.9.1-3.6.5-4.7.9s-1.3.8-.9.9c.4.2 1.4.1 2.9.1h.5c-1.2.2-2.2.5-2.9.8-.2-.1-.7-.1-1.2-.1-1.2 0-2.4-.1-3.6-.3-.6-.1-1.1-.3-1.8-.5l-2.2-.8c-.8-.3-1.8-.6-2.8-.8l-.8-.2-1-.2c-.7-.1-1.4-.1-2-.1-1.4 0-2.7.3-4 .7-1.3.5-2.4 1.2-3.4 2-.7.6-1.3 1.3-1.8 2s-.9 1.5-1.2 2.2c-.6 1.5-.9 2.9-1 4.3-.1 2.7.4 5.1.9 7.4 1.4 5.5 3.2 10.4 5.8 15.3.2.5.5 1 .8 1.5.3.5.6 1 .9 1.4.6.9 1.2 1.9 1.8 2.8.6.9 1.3 1.9 2.2 2.9.9 1 1.9 1.9 3.2 2.8 1.4.9 3 1.5 4.6 1.7-2-.2-4-1-5.5-2.1-1.5-1-2.6-2.2-3.6-3.3-1-1.1-1.7-2.2-2.4-3.2-.7-1.1-1.5-2.1-2.1-3.2-.2-.3-.4-.5-.4-.4 0 .1.1.4.3.7.9 1.5 1.9 3 2.9 4.5 1.1 1.5 2.3 3.2 4.2 4.7.5.4 1 .8 1.6 1.1.6.4 1.3.7 1.9.9 1.3.5 2.8.8 4.2.9 2.9.1 5.4-.7 7.5-1.8 1.3-.3 3.1-1.3 4.7-2.5.8-.6 1.6-1.3 2.2-1.9.7-.7 1.3-1.3 1.9-2 .7-.8 1.3-1.6 1.9-2.4l.4-.4c2.5-2.7 4.6-5.7 6.2-9 .7-1 1.3-2.1 1.9-3.2l-.3.1c.4-.6.7-1 1.1-1.7-.1.2-.3.4-.4.6.5-.7 1-1.8 1.3-3zM13 24.9c.1-.5.2-1 .3-1.4.2.2.3.5.6.7-.1.4-.1.8-.2 1.3-.1 1.4.2 3 .5 4.7.1.3.1.5.2.8-.8-2.1-1.4-4.1-1.4-6.1zm0-5.2c-.6.7-1 1.4-1.4 2.1-.5 1.1-.7 2.3-.8 3.5 0 .5-.1 1 0 1.5-.1.2-.3.5-.3 1-.2-1.6-.1-3.3.4-5 .4-1.4 1.3-2.8 2.5-3.9-.2.3-.3.6-.4.8zm1.2 8.2c-.2-1.2-.3-2.4-.1-3.6 0 0 .1 0 .1.1v.7c-.2.9-.2 1.8 0 2.8zm6.9 16.4c-.3-.5-.5-.9-.7-.9 0 0-.1.1 0 .2-1-1.8-2-3.5-2.9-5.3-.2-.5-.4-1.1-.7-1.5-.6-2.2-1.1-4.4-1.5-6.6.5 1.2 1 2.5 1.5 3.6.7 2.1 1.4 4.2 2.4 6.3.4.8.7 1.6 1.1 2.4 0 .1.1.2.1.3.3.7.6 1.4 1 2.1l-.3-.6zm3.8-26.9c-.4-.2-.9-.2-1.3-.2-.4-.1-.7-.3-1.1-.4-.1-.1-.3-.3-.7-.5 1.8.4 3.3.9 4.6 1.3 1.2.4 2.3.6 3.4.7-1.6 0-3.2-.3-4.9-.9zm10.6 35.2c0 .3-.2.5-.5.6 0 0 0 .1-.1.1-.1.1-.2.2-.3.2-.3.6-1.2.4-1.3-.1-.2-.1-.4-.4-.4-.6.1-.5.2-.9.6-1.2l.6-.3c.2-.2.4-.3.6-.5.5-.4 1.2 0 1.2.5-.1.5-.2.9-.4 1.3zm.1-7.7c-.2.3-.5.6-.7.9-.3.5-1 .3-1.2-.2-.3 0-.6-.2-.6-.5-.1-.3 0-.7.2-.9.1-.2.4-.3.6-.4.2-.3.5-.5.9-.7.6-.2 1.4.4.9 1 0 .1-.1.1-.1.1.1.1.2.4 0 .7zm2.9-27.4c-.1 0-.5.1-1 .1-.5.1-.5 0-1.7.2H35.9l.2.1-.3-.1-.2.1-1.1-.1h.1-.3.2c-.1 0-.3.1-.7.2 0 0-.1 0-.2.1-1 .1-2.1.2-3.1.1 0 0-.2-.1-.3-.1-.9-.1-1.7-.3-2.6-.6-.9-.3-1.9-.6-2.9-1-1.1-.4-2.2-.7-3.6-1-1.5-.2-3-.2-4.4.1-2.3.4-4.3 1.6-5.7 3.4-.4.4-.7.9-1 1.4-.3.5-.5.9-.7 1.4-.4 1-.6 2-.7 3-.2 1.5-.1 2.9.1 4.2.2 1.3.5 2.5.7 3.7.6 2.4 1.4 4.7 2.3 6.9.5 1.6 1.2 3.3 1.9 4.8-.2-.2-.3-.3-.4-.3l-.1.1c-.6-1.4-1.2-2.8-1.7-4.3-1.4-3-2.3-6.4-3-9.9-.3-1.8-.5-3.7-.2-5.8.3-2 1.1-4.3 2.8-6.2 1.7-1.9 4.1-3.2 6.8-3.4 1.3-.1 2.7 0 4 .3 1.1.2 2.1.5 3 .8l2.5.8c.8.2 1.4.4 2 .5 1.3.2 2.7.3 4 .2h.2c0 .1.2.2.3.3 0 .3 1.1.1 2.7-.1.4-.1.8-.1 1.1-.1h2.8c-.5 0-.9 0-1.4.1-.2 0-.3 0-.5.1 0-.1 0 0 0 0zm3.2 19.7v.2c-.1.6-.8.7-1.2.4-.2 0-.4-.1-.6-.3-.5-.5-.2-1.1.2-1.6 0-.1.1-.2.1-.3.2-.2.5-.4.8-.4.4-.3 1.2 0 1.1.5.2.3.2.5 0 .8 0 .2-.2.5-.4.7zm2.9 7.4c-.1.3-.4.6-.7.7l-.1.2c-.3.7-1.4.4-1.4-.2-.1-.1-.1-.2-.1-.3-.1-.5 0-1 .3-1.4.3-.4.7-.6 1-.9.7-.5 1.6.4.9 1 0 .1 0 .2-.1.3.2.2.3.4.2.6zm1.8-26.2c-1.6-.4-2.2-.4-2.6-.5H43.5c-.2-.1-.4-.1-.5-.2h.2c.3.1.8.1 1 .1.2 0 0-.1-.3-.2-1.3-.4-2.5-.6-3.8-.7h-.3s.1 0 .2-.1h-.4.6c.2 0 .3-.1.5-.1 2.3.2 4.6.7 6.6 1.7.1.1-.1.1.1.2.1.1.2.1.3.2-.6-.1-.9-.3-1.3-.4zm4 17.3v.4c-.1.4-.4.6-.8.7 0 0-.1 0-.1.1-.2.6-1.4.5-1.4-.2-.1-.2-.1-.4-.1-.6 0-.2.2-.4.2-.6.1-.3.2-.4.5-.5.1-.2.2-.3.3-.5.2-.3.4-.3.7-.3.4 0 .8.3.8.7-.1.3-.1.6-.1.8zm4.6-6.9c0-.2-.1-.6-.2-.4-.3-1.7-1.1-3.4-2.2-4.8-.4-.5-.9-1-1.4-1.4-.4-.6-.9-1.2-1.6-1.9 1.4 1 2.8 2.4 3.7 3.8 1.1 1.6 1.7 3.5 1.9 5.4-.1-.3-.2-.5-.2-.7zm-4-9.4c.8.5 1.5.9 2.1 1.4 1.2 1.3 2.2 2.7 2.9 4.3.4 1 .7 2.1.9 3.2.2 1.1.2 2.3.1 3.4 0 .3-.1.5-.2.8-.1.4-.3.7-.4 1v-.1c.1-.4.2-.9.3-1.4l-.1.3c.3-1.8.2-4-.5-5.8-.7-2.8-2.6-5.3-5.1-7.1z"/></g></svg>