<svg version="1.1" id="Calque_1" xmlns="http://www.w3.org/2000/svg" x="0" y="0" viewBox="0 0 64 64" xml:space="preserve"><style>.st0{fill:#3a3d3c}</style><g id="XMLID_1_"><path id="XMLID_13_" class="st0" d="M37.3 12h-.2.2z"/><path id="XMLID_201_" class="st0" d="M40 11.5c.2 0 .5.1.8 0h.1c-.1 0-.3 0-.5-.1-.3 0-.4 0-.4.1z"/><path id="XMLID_202_" class="st0" d="M40.9 11.5h0z"/><path id="XMLID_225_" class="st0" d="M15.2 51.9v.3l.3.1 1.2.3h.1s0-.1-.1-.1l-1.2-.3-.3-.1V46c0-.1 0-.3-.1-.3 0 0-.1.1-.1.2V51.2l.2.7z"/><path id="XMLID_227_" class="st0" d="M35.9 57c-.1 0-.1.1 0 0 .1.1.3.1.4.1.1 0 .1-.1 0-.1h-.4z"/><path id="XMLID_230_" class="st0" d="M20.9 56.3l-1.2-.2c-.1-.1-.4-.3-.7-.4 2.7.4 5.3.6 8 .8 2.2.2 4.5.3 6.7.4.3 0 .6 0 .6-.1s-.3-.1-.6-.1l-1.6-.1c.5-.1.8-.2.8-.3 0-.1-.2-.2-.6-.3 2.4 0 4.8-.2 7.1-.4.1 0 .2 0 .2-.1h-.3c-3.4.2-6.7.2-10 .1-2.6-.3-5.2-.7-8-1.2-1.8-.3-3.6-.6-5.3-.8-.6-.1-1.2-.2-1.7-.3-.1 0-.1-.1-.1-.1V52.6l-.1-.9v-1.4-2.1c.1.2.1.3.2.3h.1v4.6h.1l.6.1c.4.1.8.1 1.2.2l1.5.2c2.8.4 5.5.7 8.3.9 5.5.3 10.9.2 16.4-.4.7-.1 1.2-.2 1.1-.4-.1-.1-.7-.2-1.4-.1-5.2.3-10 .5-15.3.3-1.9-.1-3.7-.2-5.4-.4l-2.7-.3c-.7-.1-1.4-.2-2.2-.3-.5-.1-1-.1-1.6-.2-.2 0-.1-.2-.2-.3V51.2c0-.8 0-1.6-.1-2.4 0-1.1 0-2.2-.1-3.3v-1.3-1.3c0-3.5.2-6.9.4-10.3 0 4.1 0 8.1.3 12.1 0 .3.1.5.1.4.1-.1.1-.3.1-.6-.2-5.6-.1-11.1.1-16.7.6-1.5 1-4.7 1.2-7.5.1-1.1.1-2 .1-3-.1.5-.1.9-.2 1.4 0-.7.1-1.3.1-1.9 0-.6 0-1.3-.1-1.5v-.1c.1-.3.2-.6.2-.8.1-.2.1-.4.3-.5.1-.2.4-.2.6-.2h.6l-.1-.2c.1 0 .2.1.2.1.2 0 .4.1.7.1l-.5-.1c.6.1 1.4.1 2.2.1 1.8.2 4 .3 6.3.4.3.1.7.1 1.3.1.2 0 .5 0 .6.1 1.4.3 3.2.4 5.1.5-.4 0-.8-.1-1.1-.1.6 0 1.1.1 1.7 0l-.2-.1c1.9.2 4.5 0 5.8-.4 1.3-.4.8-.9-1.1-1.1H39c1-.1 1.8-.2 2.3-.5.3-.1 0-.3 0-.4.1-.2-.7-.4-1.7-.3-.3 0-.6 0-.8.1-1.2 0-2.4-.1-3.5-.1-.2 0-.5 0-.6.1-.1 0 0 .1.2.1.8.1 1.6.2 2.4.2h.2s-.1 0-.1.1h.2-.4c-.1 0-.2.1-.3.1-1.4 0-2.9-.1-4.2-.2-.1 0 0-.1-.1-.1h-.2.8c1-.2 1.4-.2 1.7-.3h.1c.1 0 .2 0 .4-.1h1c.1 0 .1 0 .2.1h1.8v-.1h1.9l-.4-.1.4.1-.1-.1.2.1.2-.1.7.2c.1 0 .2 0 .5-.1 0 0 .1 0 .2-.1l.3-.1v-.1c-.1 0-.1 0-.1-.1 0 0-.1 0-.2-.1-.1 0-.2 0-.7-.1l.1-.1c.1-.2.1-.2-.5-.6 0 0-.4-.1-.9-.2h-1.4-.5c-.2-.1-.3-.1-.4-.1h.4c-.1-.4-.1-.5-.4-.6.4-.3.1-.5-.3-.7.1-.1.2-.2.2-.3.6-.3.9-.5 1-.8l.1-.2c-.2-.2-.6-.4-1.3-.5h-.2l.2-.2c-.9-.5-2.7-.8-3.8-1.3l-.8-.2c-.7-.2-1.7-.3-2.8-.4h-1.9c1.2-.3 1.9-.6 1.7-1-.4-.6-3.2-.9-6.3-.8-2.2.1-4.4.2-6.6.2-1 0-2 0-2.9.2-.9.1-1.8.4-2.6.8-.7.5-1.4 1-2.1 1.7-.6.6-1.1 1.4-1.4 2.2-.4.8-.6 1.8-.7 2.6L7 13.6l-.1 1.2v.8l-.1 1.5c-.1 2.1-.2 4.1-.3 6.2-.2 6.2-.1 11.9-.1 18 .1 2.9.3 5.8.5 8.6v.5l.1.8.1 1.9.3 3.6.1 1.8v.2h.2l.5.1.9.2 3.6.6c1 .2 2 .3 2.9.4.6 0 1.1.1 1.7.1 1.1.1 2.2.1 3.2.1 2.1 0 4.1-.1 6.3-.2.1 0 .1 0 .1-.1h-.4c-3.4-.1-6.8-.3-10.2-.7-.3 0-1.1-.1-1.7-.3l-1.9-.3c-1.3-.2-2.6-.5-4-.7h-.1v-.8l-.1-1-.1-2c-.1-1.3-.1-2.6-.2-3.9 0-.8 0-1.6-.1-2.4v-.3l.1-2.2v.8c0 .5.1.9.2 1 0 0 .1-.1.1-.2l.2 2.8L9 53c0 .8.1 1.5.2 2v2.3c0 .1 0 .1.1.1h.1l.3.1.5.1 1.1.3c1.4.3 2.9.7 4.4 1l.6.1c.7.1 1.4.2 1.7.1.1 0 .2 0 .2-.1 4.8.6 9.8.8 14.3.6.2 0 .4-.1.3-.1h.3c.5-.1 1.2-.1 1.8-.1.1 0 .2 0 .2-.1h-.3c-.7 0-1.3.1-1.9.1h-.1c-.1 0-.3-.1-.5 0-4.7 0-9.3-.2-14-.8 2.3.2 4.7.4 7.2.5 3 .1 5.8 0 8.8 0 .2 0 .3 0 .2-.1 0 0-.1-.1-.3 0-6.2 0-11.7.2-18.1-.9-.3-.1-.6-.1-.9-.2l.9.1h.7c.5 0 1 0 1.5.1 1 0 2 .1 2.9.1 5.9.7 11.7.8 17.5.4.3 0 .5-.1.5-.1 0-.1-.2-.1-.5-.1-3.3 0-6.6-.1-9.8-.4h1.4c2.1.1 4.2.1 6.3.1.8 0 1.4-.1 1.5-.3 0-.2-.6-.3-1.3-.3h.4c.1 0 .2 0 .2-.1h-.3c-.4 0-.9.1-1.3.1-4-.1-8-.3-12-.7 4.3.3 8.7.4 13.1.3-.1 0-.1.1 0 .1h.4c.1 0 .1-.1 0-.1 2.4-.1 4.7-.1 7.1-.3.1 0 .3 0 .2-.1h-.3c-8 .3-15.8.3-23.4-.4zm17.6-45.5c-.1 0-.1 0-.2-.1-.1 0-.1 0 .2.1zM37 7.2l-.6.6.6-.6zm-3.8 2.6c.1 0 .2.1.3.1 0 .1-.1 0-.3-.1zm-9.1 1.6c.1 0 .4 0 .3-.1H28c.5 0 .9 0 1.3-.1.5.1 1 .3 1.6.4-1.1-.1-2.3-.1-3.5-.1-1.3 0-2.5 0-3.7-.1h.4zm-2.9 1.4h.9-.2 3.4c1.6.1 3.4.1 5.2.1l-1.5.3c-2.3-.1-4.5-.2-6.8-.2h-.5l-.5-.2z"/><path id="XMLID_235_" class="st0" d="M47.6 20.2s.1 0 .1.1l-.1-.1z"/><path id="XMLID_236_" class="st0" d="M46.2 19.5c-.1-.1-.2-.2-.4-.3h-.1l.2.2c.2.1.3.1.3.1z"/><path id="XMLID_237_" class="st0" d="M45.7 19.2c0-.1-.1-.1 0 0 0-.1 0-.1 0 0 0-.1 0-.1 0 0z"/><path id="XMLID_238_" class="st0" d="M22.9 33.2s0-.1 0 0c-.1-.1-.2-.1-.2-.1-.1 0-.1 0 0 0 0 .1.1.1.2.1z"/><path id="XMLID_239_" class="st0" d="M20.2 32.1v.3z"/><path id="XMLID_240_" class="st0" d="M20.3 32c0 .1 0 .1 0 0 0 .1 0 .1 0 0 0 .1 0 .1 0 0z"/><path id="XMLID_241_" class="st0" d="M20.5 32.5s0-.1 0 0c0-.1 0-.1 0 0-.1 0-.2-.1-.3-.1v.1h.3z"/><path id="XMLID_242_" class="st0" d="M20.4 32z"/><path id="XMLID_243_" class="st0" d="M19.9 33.1l.2-.7-.2.7z"/><path id="XMLID_244_" class="st0" d="M20.1 32.4c0-.1-.1-.1-.1-.2v.1l.1.1z"/><path id="XMLID_245_" class="st0" d="M19.5 33.1c.1.1.2.1.4.1v-.1h-.4z"/><path id="XMLID_246_" class="st0" d="M20.4 32z"/><path id="XMLID_251_" class="st0" d="M20 32.3l-.5.8.5-.8z"/><path id="XMLID_252_" class="st0" d="M20.4 32c-.1 0-.1 0 0 0-.1 0-.1 0 0 0-.1 0-.1 0 0 0z"/><path id="XMLID_256_" class="st0" d="M20.4 31.9c0 .1 0 .1 0 0 0 .1 0 .1 0 0z"/><path id="XMLID_257_" class="st0" d="M20.4 31.9z"/><path id="XMLID_258_" class="st0" d="M45.3 46.2z"/><path id="XMLID_259_" class="st0" d="M44.6 47.2c-.1.1-.2.1-.3.3v.1s.1-.1.2-.1c.1-.2.2-.3.1-.3z"/><path id="XMLID_260_" class="st0" d="M44.3 47.6s-.1 0 0 0z"/><path id="XMLID_261_" class="st0" d="M41.4 35.8h-.1c-2.4 0-4.7-.1-7-.1h-.2.1c2.3 0 4.7.1 7 .1h.2z"/><path id="XMLID_262_" class="st0" d="M23.9 34.2c0-.1 0-.1 0 0 0-.1-.1-.1-.2 0-.1 0-.1 0 0 0h.2z"/><path id="XMLID_265_" class="st0" d="M61.6 33.7c-.1-.3-.1-.6-.3-1-.2-.4-.4-.6-.6-.8-.1-.2-.3-.5-.5-.8l-.6-.8-.8-.8c-.5-.5-1-1-1.5-1.6v.2c-.3-.4-.5-.6-.9-1l.3.4c-.2-.2-.4-.5-.7-.7l-.7-.7c-.6-.8-1.5-1.8-2.5-2.7-.1-.1-.3-.3-.5-.6l-.3-.3c-.5-.7-1.2-1.4-2.1-2.2l.5.5c-.2-.2-.5-.5-.8-.7l.1.1c-.8-.8-2.1-1.7-2.9-2-.8-.3-.7.1.1.9l.1.1c-.5-.3-1-.6-1.3-.6-.2 0-.1.1-.1.2-.1.1.2.4.7.8.1.1.3.2.4.2.6.4 1.1.9 1.6 1.4.1.1.2.2.3.2.1 0 0 0-.1-.1l-1-1h-.1.1l-.1-.1h.1l.1.1s.1 0 .2.1c.7.5 1.3 1.1 1.9 1.7 0 0-.1 0 0 .1l.1.1-.3-.3c-.5-.3-.7-.4-.8-.5-.1 0-.1-.1-.2-.1h-.1l-.3-.4c-.1-.1-.2-.1-.2-.1l-.1-.1c-.4-.3-.4-.3-.8-.7 0 0-.2-.1-.3-.2-.2-.1-.2-.1-.6-.4l.2.2-.2-.2v0H46l-.3-.4s-.1-.1-.3-.1h-.1-.2v.1l.1.1.3.3h-.1c-.1.1-.1.1.1.5 0 0 .1.2.4.4.3.2.3.2.6.5l.2.2c.1.1.1.1.1.2-.1 0-.1-.1-.2-.1-.2-.1-.2-.1-.1.1-.3 0-.2.2-.1.5-.1 0-.2 0-.2.1-.3-.1-.6-.1-.7 0l-.1.1c0 .1.2.4.4.7l.1.1h-.2c.2.5.9 1.3 1.2 1.9l.3.4c.2.3.5.7 1 1.1l.5.5.3.3c-.6-.4-1-.4-1.1-.2-.1.4.9 1.6 2.2 2.7l1.2 1.1.2.2h.1s.1 0 .1.1v.1c1.2.2-3.8.1-6.8 0-3.3 0-6.5.1-9.7.2-2.7.1-4.8.4-7.2.6-.1 0-.1 0 0 0h.2c2.9-.1 5.9-.1 9-.1H37c-.9.1-1.7.1-2.5.2H34c-.4 0-.8 0-1 .1-.1 0-.1 0-.1.1-2.7 0-5.5 0-8.1.1-.1 0-.2 0-.2.1h-.2c-.3 0-.7 0-1 .1h-.1.2c.4 0 .7 0 1.1-.1h7.2c-.1 0-.3 0-.4.1h-2.6c-1.7 0-3.3.1-5 .1h-.1.2c2.4 0 4.5-.1 6.8-.1-.5.1-.9.1-1.4.2h-.1.2c1.1-.1 2.3-.1 3.4-.2h1.6l-3.3.3c-3.3-.1-6.7-.1-9.9-.1h-.3s.1.1.3.1c1.6.1 3.2.2 4.9.3h-.2c-.1 0-.2 0-.2.1-1.1 0-2.2-.1-3.3-.1-.5 0-.8 0-.9.1 0 .1.3.2.8.2H22h1c.6 0 1.2.1 1.8.1H25.1c.6 0 1.1.1 1.7.1-.7 0-1.3 0-2 .1-.8 0-1.6 0-2.4-.1.1 0 .1 0 0 0h-.2c-.1 0-.1 0 0 0-.8 0-1.5-.1-2.3-.1v.1c1.3.1 2.7.1 4 .1h-1.5c-.2 0-.3 0-.3.1 0 0 .1.1.3.1.9 0 1.8 0 2.7.1-.2 0-.4.1-.4.1h-1.1c-.4 0-.8.1-.8.2 0 0 .1.1.2.1h-2.1 6.2c-1.2 0-2.4.1-3.6.1.1 0 .1 0 0 0h-.2c-.1 0-.1 0 0 0h-3.6l.3-1-.4 1H19.3h.4l-.1.3h.1l.1-.3c2.6 0 5.2 0 7.9-.1.3 0 .6.1.9.1h-3.2c-.2 0-.3 0-.3.1 0 0 .1.1.3.1h.9c-.3 0-.4.1-.5.2h-6.1l-.1.3c1 0 2 .1 3 .1H22h.2c.8 0 1.6 0 2.5-.1h4.4c1 .1 2 .1 3 .1 1.7 0 3.3 0 4.9-.1 1.2 0 2.5.1 3.7.1h-2c-6.3 0-12.3.3-18.2.5-.4 0-.7.1-.6.2 0 .1.4.1.8.1 2.8 0 5.4-.1 8.3-.3 2.1-.1 3.9-.2 6-.2h1.9l5.4.3h.1l-4.5-.3h8.3c.6 0 1.1.1 1.7.1-1 0-2 .1-3 .1h-1.8c-.2 0-.3 0-.3.1h.1-.6c-.2 0-.3 0-.3.1 0 0 .1.1.3 0h3.1c.8 0 1.7 0 2.5.1l4.5.1H53.3c.1 0 .4 0 .4.1V36c.1 0 .1.1.1.2v.1l-.1.1-.1.1c-1.1 1-2 2-3 2.9l.2-.1c-.2.2-.4.3-.6.5l.3-.2c-.3.2-.5.5-.8.7-.8.6-1.5 1.3-2.2 2-.1.1-.3.2-.5.4-.1.1-.2.1-.2.2-.6.4-1.2.9-1.8 1.4l.4-.3c-.2.2-.4.3-.5.5h.1c-.7.5-1.3 1.3-1.5 1.8-.2.5.1.6.8.1l.1-.1c-.3.3-.5.7-.5.9 0 .1.1.1.2.1.1.1.4-.1.7-.5.1-.1.2-.2.2-.3.4-.4.8-.8 1.3-1.2l.2-.2s-.1 0-.1.1c-.3.3-.6.5-.9.8l-.1.1V46s-.1 0-.1.1V46l.1-.1s0-.1.1-.1c.5-.5 1-.9 1.5-1.4h.1l.1-.1-.3.3c-.3.4-.4.5-.4.6 0 0-.1.1-.1.2l-.2.2c-.2.3-.2.4-.2.4l-.1.1-.6.6-.2.2-.4.4.2-.1-.1.1h0v.1l-.3.2s-.1.1-.1.2V48.1h.1l.1-.1c.1 0 .1-.1.3-.2v.1c0 .1 0 .1.4 0 0 0 .2-.1.4-.3.3-.2.3-.2.5-.5l.2-.2c.1-.1.1-.1.2-.1 0 .1-.1.1-.1.2-.1.1-.1.2.1.1 0 .2.2.2.5.1 0 .1 0 .1.1.2-.1.3-.1.5-.1.7l.1.1c.1 0 .4-.1.7-.4l.1-.1v.1c.6-.2 1.5-.9 2.1-1.3l.5-.3c.3-.2.8-.6 1.3-1.2l.5-.5.3-.4c-.4.6-.5 1-.2 1 .5-.1 1.8-1.4 3.1-3 1.7-2.1 3.3-4.1 5-6.1l1.2-1.5c0-.3-.2-.6-.2-.8zm-15-13.3l.1.1-.1-.1zm-.5 2.1l.5-.1-.5.1zm2.6.2s-.1-.1-.1-.2c0 0 0 .1.1.2zm-1.1 24.8V47v.5zm-.6-3.7c.1-.2.2-.4.3-.5.8-.7 1.6-1.4 2.4-2.2l.2-.2.3-.2-.3.3.1-.1c-.4.4-.8.8-1.2 1.1-.7.6-1.3 1.2-1.8 1.8zm.9 1.4c-.1 0-.1.1-.2.1 0 0 .1 0 .2-.1zm1-2.2c-.2.2-.3.3-.4.5-.3.2-.5.3-.8.5.4-.4.8-.8 1.3-1.2.5-.5.9-.9 1.4-1.3l-.1.2c0 .1-.1.2 0 .1-.5.4-.9.8-1.4 1.2zm5.6-17.3l.2.2.2.3-.3-.4.1.1-1.4-1.4c-.7-.7-1.4-1.4-2.2-2.1.3.2.5.3.7.5.9.9 1.7 1.8 2.7 2.8zm-3-1.6c-.2-.2-.4-.3-.6-.5-.2-.2-.3-.5-.6-.8.5.5 1 .9 1.5 1.4l1.5 1.5-.2-.2-.1-.1c-.5-.3-1-.8-1.5-1.3z"/></g></svg>