<svg version="1.1" id="Calque_1" xmlns="http://www.w3.org/2000/svg" x="0" y="0" viewBox="0 0 64 64" xml:space="preserve"><style>.st0{fill:#3a3d3c}.st1{fill:#fff}</style><g id="XMLID_242_"><path id="XMLID_243_" class="st0" d="M53.1 13.6c.2 0 .3.1.3.1-.1 0-.2 0-.3-.1z"/><path id="XMLID_369_" class="st0" d="M53.2 26.4v.6c0 .2 0 .2 0 0v-.6c0-.2 0-.2 0 0z"/><path id="XMLID_447_" class="st0" d="M55.6 53.7c0-.8-.1-1.6-.1-2.5-.2-3.2-.4-6.4-.5-9.7v-.1.6c.1 2.7.2 5.3.3 8 .1 1.3.1 2.7.2 4 0 .7.1 1.3.1 2.1 0 .4-.1.9-.2 1.3-.2.5-.4.9-.6 1.2-.2.3-.5.7-.7.9-.1.2-.4.3-.6.5-.2.2-.4.3-.6.4-.8.4-1.6.6-2.3.7-1.5.3-2.9.3-4.3.3s-2.9 0-4.3-.1-2.8-.1-4.2-.2c-1.3 0-2.6-.1-3.8 0h-4 1.2c.8 0 1.5 0 1.5-.1h-.3c3-.1 5.8-.1 8.7 0 .9 0 1.7.1 2.4.1 1.7.1 3.4.1 5.2 0l2.7-.3c.5-.1.9-.2 1.4-.4.2-.1.5-.2.8-.5.1-.1.3-.2.4-.3l.3-.3s.2-.2.3-.4c.2-.2.3-.4.3-.4.4-.5.7-1.3.8-1.9.1-.6 0-1.1 0-1.3 0-.2 0-.3-.1-.3-.3-7.6-.6-15.4-.8-22.7 0-.4 0-.6-.1-.5v-.5c0-.9-.1-1.8-.1-2.9v-.2.6c0 1 .1 2 .1 3v1.1c.2 7.5.5 14.8.7 22.3-.2-3.7-.3-7.5-.5-11.5-.2-4.8-.3-9.3-.5-14.1v-.4.5c.1 5 .3 9.6.5 14.3.1 2.4.2 4.7.3 7.1 0 1.2.1 2.4.1 3.6 0 .6.1 1.3-.1 2.1s-.6 1.4-1 2c-.1.2-.3.3-.4.5-.2.2-.4.3-.6.5.2-.2.4-.3.6-.5.2-.2.3-.3.4-.5.3-.3.5-.7.7-1.1.4-.9.4-1.8.3-2.6-.2-1.6-.2-3.1-.3-4.6-.3-9.4-.5-18.8-.8-28.1 0-.5 0-.8-.1-.8v.8l.3 15.9-.1-1.1v-1.1c-.1-3.4-.2-6.8-.2-10.3 0-1.3-.1-2.3-.2-2.4-.1 0-.1.9-.1 2.2V25v-.3.5c0 .7.1 1.4.1 2.1.1 6.5.3 13 .4 19.5-.2-7-.4-14.1-.6-21.3 0 .1 0 .2 0 0v-.6c0-.2 0-.1 0 0-.1-3.5-.2-7-.2-10.5.3 0 .4 0 .2-.1 0 0-.1 0-.2-.1.1-.1.2-.2.2-.3h.5c.4 0 .1-.1 0-.2.1 0-.1-.1-.5-.2 0 0 0-.1-.1-.1h.1c.1 0 .3 0 .8.1h.7c-.1 0-.1 0-.2-.1 0 0-.2 0-.4-.1-.2 0-.3-.1-1-.2h.2c.1 0 .2-.1-.4-.2.4-.1.4-.6.2-.8l-.3-.3c-.6-.2-1.2-.2-1.8-.1.9-.1 1.5-.2 1.8-.3l-2.9.1c-.3-.1 3.3-.2 2.2-.3h-.4l-4-.1c-.1 0-.2 0-.3-.1v-.3.3h-.3v-.3-.4-1.5c.1.6.1 1.1.2 1.7 0 0 0 .1.1.1v-.1c-.1-.8-.1-1.6-.2-2.4.2-.2.3-.7.3-1.1 0-.2 0-.3-.1-.4v.2c0-.2-.1-.4-.1-.5.1-.4.1-.8.1-1.2h-.1c0-.1.1-.1.1-.2l-.1.1c0-.1.1-.2.1-.3.1-.3.2-.6.2-.9 0 0 .1-.1.1-.2v-.1c.1-.2.2-.4.3-.7l-.1.2v-.2c.1-.3 0-.6-.1-.8-.2-.2-.4-.1-.5.2-.7 0-.7-.2-.8-.2h-.2c-.1 0-.2.1-.2.2v.1c0 .2 0 .3-.1.5v.1h.1c0-.1.1-.2.1-.3 0 .2 0 .4-.1.6h-.1v-.1c-.1-.1-.1-.2-.1-.2v-.2-.1-.2-.1-.2 0l.1-.1v-.1h-.1-.1V2c-.1 0-.1 0-.2.1 0 0 0 .1-.1.1V2.5l-.1.1v-.1s-.1-.1-.1 0c-.1-.1-.2 0-.3.1h-.1c-.1-.1-.2-.1-.3-.1h-.1c-.1 0-.2.1-.2.2h-.1c-.3 0-.4.3-.6.4l-.1.1c-.1.1-.1.2-.2.4V3.9c-.1-.2-.3-.3-.4-.2-.3.1-.4.5-.4.9.1 1.1.2 2.2.3 3.4.1.9.3 1.6.3 2.5 0 .1.1.3.1.4-.7-.1-1.5-.1-2.1-.2l-1.3-.1c-1-.1-2.5-.1-4.3-.1h-1.5v-.1h.3s0 .1.1.1v-.1c.7-.1 1-.2.8-.3-.1 0-.4-.1-.8-.1-.1-.7-.2-1.5-.3-2.2.2-.3.3-.8.3-1.2 0-.2 0-.3-.1-.5v.2c0-.2-.1-.4-.2-.6.1-.4 0-.9 0-1.4h-.1c0-.1.1-.1.1-.2l-.1.1c0-.1.1-.2 0-.3.1-.3.2-.6.2-1 0 0 .1-.1 0-.2v-.1c.1-.2.2-.5.2-.8l.1.2v-.3-.3l-.7.2v-.2H34l-.2.1H33.5l-1.7.5 1.7-.5h.1-.1l-1.4.5c.1 0 .1-.1.2-.2h.6c.1-.1.1-.2.1-.3h.1c0-.1.1-.1.1-.2l-1.5.5.2.1-.2-.1-.3.1c-.3-.1-.4.1-.6.3l-.1.1c-.1.1-.1.2-.1.2h-.1v.2l-.3.1H30c-.3.1-.4.5-.4 1 .1 1.2.2 2.4.5 3.7.1.9.3 1.6.4 2.5-1.5 0-3.3.1-5.1.2-1.2.1-2.4.1-3.6.2v-.1c-.1-.3-.2-.5-.3-.7 0-.5-.1-.9-.1-1.4.2-.2.3-.7.3-1.2 0-.2 0-.3-.1-.5v.2c0-.2-.1-.4-.2-.6.1-.4.1-.9.1-1.4h-.1c0-.1.1-.1.1-.2 0 0 0 .1-.1.1 0-.1.1-.2.1-.3.1-.3.2-.6.2-1 0 0 .1-.1.1-.2V3c.1-.2.2-.5.3-.8 0 .1 0 .1-.1.2v-.3c.1-.3 0-.7-.1-.9-.2-.2-.4-.1-.5.2v.1c0-.2-.1-.3-.2-.4H21c-.1 0-.2.1-.2.3v.1c0 .2 0 .4-.1.6v.1h.1c0-.1.1-.3.1-.4 0 .2 0 .4-.1.6h-.1v-.1c-.1-.2-.1-.2-.1-.3v-.1-.1-.1-.3-.1-.2 0h.1l.1-.1V.9h-.1-.1V1c-.1 0-.1 0-.3.1 0 0 0 .1-.1.1V1.5l-.1.1v-.1c0-.1-.1-.1-.1 0-.1-.1-.2 0-.3.1h-.1c-.1-.1-.2-.1-.3-.1h-.1c-.1 0-.2.1-.2.2h-.1c-.2.1-.4.4-.6.6l-.1.1c-.1.1-.2.2-.2.4V3.1c-.1-.2-.3-.3-.4-.2-.3.1-.5.5-.4 1 .1 1.2.1 2.4.3 3.7.1.9.3 1.8.3 2.7v.1c-.6 0-1.2.1-1.8.1-.5 0-1 .1-1.6.2-.3.1-.6.1-.9.3-.3.1-.7.3-1 .5-.7.4-1.2 1-1.6 1.8-.2.4-.3.7-.4 1.1 0 .2-.1.4-.1.6v.4c0 1.6.1 3.3.1 4.9.1 6.5.3 13 .4 19.7.1 4.9.2 9.7.4 14.4v1.8c0 .7 0 1.4.4 2.4s1.2 1.9 2.2 2.4c.2.1.5.2.8.3.2.1.4.1.6.2.4.1.8.1 1.1.1 2.4.1 4.8.2 7.3.2 4.7 0 9.2-.3 13.7-.2 2.2 0 4.4.2 6.8.2 2.3 0 4.6 0 7.1-.5.5-.1 1.1-.3 1.7-.6l.5-.2c.2-.1.3-.2.5-.4.1-.1.3-.2.4-.4l.3-.3c.3-.4.7-.9 1-1.5.3-.6.4-1.3.5-1.8-.4-.9-.6-1.6-.6-2.4zm-2.8-39.2c.2 12.5.6 24.8 1 36.9v2c0 .2-.1.7-.1 1.3l-.3-10.8c0-.1.1-.2.1-.3-.1-1.3-.1-2.6-.2-3.9-.1-3.1-.1-6.1-.2-9.2 0-.5 0-1-.1-1v1l.1 2.7c0-.4-.1-.8-.1-1l-.5-11.9v-5.9c.1.1.3.1.3.1zm-5.9-9.7v-.1-.5c.1-.2.2-.5.2-.7 0 .1.1.1.1.2-.1.3-.2.6-.2.9l-.1.2zm-.4-1.4c0 .2 0 .3-.1.5 0 .2 0 .4-.1.5v-.1s0-.1 0 0v-.5-.2c.1 0 .2-.1.2-.2zm-.7-.3zm-1.1-.5l.2.1-.2-.1zm-9.8 56.2c2 0 4 .1 6.1.2 2.4.1 4.7.2 7 .1 1.1-.1 2.3-.2 3.2-.5l.3-.1.3-.1c.1 0 .1-.1.2-.1s.1-.1.2-.2c.3-.4.6-.8.8-1.1.1-.3.2-.6.2-1.1h.1v.5c-.1.6-.4 1.1-.9 1.6l-.2.2c0 .1-.1.1-.1.1-.1.1-.2.1-.3.2l-.9.3c-1.4.3-3 .4-4.6.5-1.6 0-3.2 0-4.8-.1-2.3-.2-4.6-.2-6.9-.3.1 0 .3 0 .3-.1zM34.6 10h-.2V8.5c0 .5.1 1 .2 1.5zm-.5-6.2v-.1-.5c0-.3.1-.5.1-.8 0 .1.1.1.1.2 0 .4-.1.7-.1 1.1l-.1.1c0 .1 0 0 0 0zm-.5-2l.2-.1V2h-.1v-.1c-.1 0-.1-.1-.1-.1zm0 .6v1.1-.1s0-.1 0 0v-.6-.2c-.1 0-.1-.1 0-.2zm-.8-.4s0 .1 0 0c0 .1 0 .1 0 0zm-.2-.6h.2-.2zm-.8.6zm-.9.4zm.1 0h.1-.1zm0 0h.2-.2c-.1 0-.1 0 0 0zM18.7 2l.3.1-.3-.1zm1.2.6c0-.1 0-.1 0 0 0-.1 0-.1 0 0zm.7.8c0 .2 0 .4-.1.6v-.1s0-.1 0 0c0-.2 0-.4.1-.5-.1-.1-.1-.2-.1-.3.1-.1.1-.2.2-.3-.1.2-.1.4-.1.6zm.6.9v-.1-.5c.1-.3.1-.5.1-.8 0 .1.1.2.1.2-.1.4-.1.7-.2 1.1v.1zm0 5.9V10v.2l.1.1-.1-.1zm0-.4v-.1c0 .1.1.3.1.4 0-.1-.1-.2-.1-.3zm0-.5V9c0 .2 0 .4.1.6 0-.1-.1-.2-.1-.3zm.3 1.1V10c0 .2.1.3 0 .4.1 0 .1 0 0 0z"/><path id="XMLID_546_" class="st0" d="M46.7 2.5c0 .1 0 0 0 0z"/><path id="XMLID_550_" class="st0" d="M46.5 2.2v-.1.1c0-.1 0 0 0 0z"/><path id="XMLID_551_" class="st0" d="M46.5 2z"/><path id="XMLID_552_" class="st0" d="M31.6 1.6h-.1.1z"/><path id="XMLID_553_" class="st0" d="M20.9 1.9z"/><path id="XMLID_554_" class="st0" d="M20.7 1.5v-.1.1c-.1 0 0 0 0 0z"/><path id="XMLID_555_" class="st0" d="M20.7 1.3z"/></g><g id="XMLID_241_"><path id="XMLID_450_" class="st1" d="M20.1 26.6H20c.8.1 1.8.1 2.5-.1.2 0 .4 0 .5-.1 0 0-.2-.1-.4-.1h-.2c-.3-.1-.8-.1-1.2-.2h.3-.4.1c-.5-.1-1.1 0-1.4 0-.3.1-.2.2.3.3v.2z"/><path id="XMLID_449_" class="st1" d="M20.9 26.8c-.3 0-.5-.1-.8-.1H20v.1c.2-.1.7-.1 1-.1h.2s-.1-.1-.3-.1h-.2c-.5 0-1.3 0-1.5.1-.1 0 0 .1 0 .1s.2.1.4.1.5 0 .5-.1h.1-.1c.1 0 .3-.1.5-.1h.2l-.1-.1h-.1c-.2 0-.5.1-.8.1h-.3c-.1 0-.1.1 0 .1h.2-.1c.5 0 .8.1 1.3 0 0 .1 0 .1 0 0 .1.1.1 0 0 0z"/><g id="XMLID_383_"><path id="XMLID_448_" class="st1" d="M19.7 26.9h-.2.2z"/><path id="XMLID_444_" class="st1" d="M19.5 26.8c-.1 0-.1 0 0 0-.1 0-.1 0 0 0-.1 0-.1 0 0 0z"/><path id="XMLID_443_" class="st1" d="M34.7 26.7c1.1 0 2.2 0 3.2.1h0c-1-.1-2.1-.1-3.2-.1-.1 0-.1 0 0 0-.1 0-.1 0 0 0z"/><path id="XMLID_442_" class="st1" d="M42.7 27.4c.1 0 .1 0 0 0 .2 0 .2 0 0 0 .1 0 .1 0 0 0z"/><path id="XMLID_384_" class="st1" d="M42.5 28h-.4-.1-.1c-1.1.1-2.2.1-3.4.2H38c-.5 0-1 0-1.5-.1h-.3c-.5 0-.9.1-1.3.1h-.4 1.2c1.7 0 3.3-.1 4.9-.2h.1c-1 .1-1.9.3-3 .4-1.3.1-2.7.2-4 .2-1.4 0-2.8.1-4.2.1-2 .1-3.8.1-5.8.1-.7 0-1.4-.1-1.5-.2-.1-.1.1-.2.4-.2h-.5c-.3 0-.5-.1-.6-.1l-.2-.1c-.3-.1-.7-.2-.9-.3h-.1c-.2 0-.3-.1-.3-.1v-.1c0-.1.1-.1.3-.2v-.1c-.1-.1-.2-.1-.1-.2-.1 0-.1 0 0-.1h0H19.6l-.2-.1h-.2-.1.2l.2.1h.1-.1 1.8-.1c-.5 0-1-.1-1.5-.1h-.2.1c1-.1 2.2-.1 3.3 0h1-.2-.1c-.6 0-1.2-.1-1.8-.1-.3 0-.6-.1-.9-.1h-.1.2c1 0 2.2 0 3.1.1h.5-.1.3c.7 0 1.5 0 2.1.1h.1c.3 0 .6-.1.9-.1h-.3.7c.7 0 1.5.1 1.8.2H34.1c-1 0-1.9.1-2.9.1.9 0 1.7 0 2.5.1H37.5c.9 0 1.7-.1 2.7-.1 1.3-.1 2.5-.1 3.8-.1.2 0 .3 0 .4.1 0 0-.1.1-.3.1-2.5-.4-5.1-.3-7.9-.3h-.9l-.1.1h1c.9 0 1.9-.1 2.9-.1.7 0 1.3.1 2 .1.8 0 1.7 0 2.5-.1h.1c-.6 0-1.2.1-1.7.1.1 0 .1 0 .1.1 0 0-.1.1-.2.1h.4-3.5c.1 0 .2 0 .2.1h.3c1.8-.1 3.7-.1 5.6-.1h0-1.7-.1c-1.1 0-2.1 0-3.1.1h3.3-.1c.2 0 .3 0 .3.1 0 0-.2.1-.4.1h-1.9c.8 0 1.6 0 2.3.1h0c-1.4 0-2.8.1-4.2.1-.5.1-.9.1-1.4.2h.2c1.5 0 2.8-.2 4.3-.2h0c-.7 0-1.4.1-2.1.1-.6 0-1.1.1-1.7.1 1.1 0 2.2-.1 3.3-.1h.1c.2.1.3 0 .5.1 0-.1 0-.1 0 0 .1-.1 0 0 0 0zM23 27.1c.1 0 .1 0 .2.1 0 0-.1-.1-.2-.1zm-1.7.2s-.1 0 0 0zm11-.4c-.6 0-1.2 0-1.8-.1h.4c.4 0 .9 0 1.4.1zm-10.4 0c.2 0 .3.1.4.1H23.7h-.9c-.4-.1-.6-.1-.9-.1zm-2.1.1c0-.1 0-.1 0 0zm-.1 0zm.4.1c0-.1-.1-.1 0 0zm.3.8l.2-.1-.2.1z"/></g></g><g id="XMLID_244_"><path id="XMLID_382_" class="st1" d="M19.6 36.2h-.1c.8.3 1.8.3 2.5.3h.5s-.1-.1-.4-.1h-.2c-.3-.1-.8-.2-1.2-.3l.3.1c-.1 0-.3-.1-.4-.1-.5-.1-1.1-.2-1.4-.2-.3 0-.2.2.2.3h.2z"/><path id="XMLID_381_" class="st1" d="M20.5 36.7c-.3-.1-.5-.2-.8-.2v.1c.3 0 .7 0 1.1.1h.2s-.1-.1-.3-.1h-.2c-.5-.1-1.3-.3-1.6-.2-.1 0 0 .1 0 .1l.4.2h.6-.1.8l-.1-.1h-1.3c-.1 0-.1 0 0 .1l.1.1h-.1c.4.1.7.2 1.1.3.1-.4.2-.4.2-.4z"/><g id="XMLID_252_"><path id="XMLID_380_" class="st1" d="M19.2 36.5H19h.2z"/><path id="XMLID_379_" class="st1" d="M19 36.4s-.1 0 0 0z"/><path id="XMLID_378_" class="st1" d="M34.7 37.1h3.4c-1.1 0-2.2-.1-3.4 0 0-.1 0-.1 0 0 0-.1 0 0 0 0z"/><path id="XMLID_377_" class="st1" d="M43.2 37.9s.1 0 0 0c.1 0 .1 0 0 0 .1 0 0 0 0 0z"/><path id="XMLID_260_" class="st1" d="M42.9 38.5h-.4-.1-.1c-1.5 0-2.4.1-3.5.1h-.6c-.5 0-1 0-1.6-.1h-.4c-.5 0-1 .1-1.4.1h-.4 1.2c1.8 0 3.4-.1 5.1-.2h.1c-1 .1-1.9.3-3.1.3-1.6.1-2.9.2-4.2.3-1.5 0-2.9.1-4.5.1-2.1 0-4.1 0-6.2-.2-.8-.1-1.5-.2-1.6-.4 0-.1.1-.2.5-.2h-.2l-.3-.1c-.3-.1-.5-.1-.7-.2l-.2-.1c-.3-.2-.7-.3-.9-.5h.1-.1c-.2-.1-.3-.1-.3-.2v-.1c0-.1.1-.1.3-.1l.1-.1c-.1-.1-.2-.1 0-.2-.1 0-.1-.1 0-.1h.1s-.1 0-.1-.1h-.1c-.2 0-.2 0-.3-.1-.1 0-.2-.1-.2-.1-.1-.1-.1-.1-.1-.2h-.2-.1.2l.2.1h.1-.1c.2 0 .2 0 .3.1h.2c.2 0 .2 0 .4.1H20.7h-.1c-.6-.1-1-.2-1.5-.3-.1 0-.2 0-.2-.1h.2c1 .1 2.3.2 3.3.4.3 0 .6.1.8.1h.2l-.2-.1h-.1l-1.8-.3c-.3-.1-.6-.1-.9-.2-.1 0-.1 0-.1-.1h.2c1.1.1 2.3.3 3.1.5.2 0 .4 0 .5.1H24c.1 0 .2.1.4.1v-.1c.7.1 1.5.1 2.2.2h.1c.3 0 .6-.1.9 0h-.3.8c.7 0 1.5.1 1.9.2 1.4 0 2.8 0 4.2-.1h.1c-1 .1-2 .1-3.1.1h6.5c.9 0 1.8 0 2.8-.1 1.4 0 2.7 0 4 .1.2 0 .3 0 .4.1 0 0-.1.1-.3.1-2.9-.1-5.7 0-8.6 0h-.9l-.1.1h1.1c1 0 2-.1 3.1 0 .7 0 1.4.1 2.1.1.9 0 1.7 0 2.6.1h.1-1.8c.1 0 .2.1.1.1 0 0-.1.1-.2.1h.3l-1.7-.1h-2c.1 0 .2.1.2.1h.3c1.9-.1 3.9 0 5.9.1h0c-.6 0-1.2-.1-1.8-.1h-.1c-1.1-.1-2.2-.1-3.3 0 1 0 2 0 3 .1h.4-.1c.2 0 .3.1.3.1s-.2.1-.4 0c-.5 0-1.1 0-1.6-.1h-.4c.8 0 1.6.1 2.5.2h0c-1.4 0-2.9-.1-4.3 0-.5.1-1 .1-1.5.2h.2c1.6 0 2.9-.1 4.5-.1h0-2.2c-.6 0-1.2 0-1.8.1 1.2 0 2.3-.1 3.4 0h.1c.6.5.7.5.9.5.1 0 .1 0 0 0zm-20.3-1.3c.1 0 .1 0 .2.1 0 0-.1 0-.2-.1zm-1.8 0c-.1 0-.1 0 0 0-.1 0 0 0 0 0zm11.4.1h-1.8.4c.5-.1.9 0 1.4 0zm-10.8-.4c.2.1.3.1.4.2h.3c.3 0 .6.1.9.1h.2c-.3 0-.6-.1-.9-.1-.3-.1-.6-.2-.9-.2zm-2.1-.3zm-.1.1zm.4.1c0-.1-.1-.1 0 0zm.1.9l.2-.1-.2.1z"/></g></g><g id="XMLID_246_"><path id="XMLID_1504_" class="st1" d="M19.6 46.9h-.1c.8.3 1.8.3 2.5.3h.5s-.1-.1-.4-.1h-.2c-.3-.1-.8-.2-1.2-.3l.3.1c-.1 0-.3-.1-.4-.1-.5-.1-1.1-.2-1.4-.2-.3 0-.2.2.2.3h.2z"/><path id="XMLID_1503_" class="st1" d="M20.5 47.3c-.3-.1-.5-.2-.8-.2v.1c.3 0 .7 0 1.1.1h.2s-.1-.1-.3-.1h-.2c-.5-.1-1.3-.3-1.6-.2-.1 0 0 .1 0 .1l.4.2h.6-.1.8l-.1-.1h-1.3c-.1 0-.1 0 0 .1l.1.1h-.1c.4.1.7.2 1.1.3.1-.3.2-.3.2-.4 0 .1 0 .1 0 0z"/><g id="XMLID_1488_"><path id="XMLID_1502_" class="st1" d="M19.2 47.2H19h.2z"/><path id="XMLID_1501_" class="st1" d="M19 47.1s-.1 0 0 0z"/><path id="XMLID_1500_" class="st1" d="M34.7 47.7h3.4-3.4z"/><path id="XMLID_1499_" class="st1" d="M43.2 48.6s.1 0 0 0c.1 0 .1 0 0 0 .1 0 0 0 0 0z"/><path id="XMLID_1489_" class="st1" d="M42.9 49.2h-.4-.1-.1c-1.5 0-2.4.1-3.5.1h-.6c-.5 0-1 0-1.6-.1h-.4c-.5 0-1 .1-1.4.1h-.4 1.2c1.8 0 3.4-.1 5.1-.2h.1c-1 .1-1.9.3-3.1.3-1.6.1-2.9.2-4.2.3-1.5 0-2.9.1-4.5.1-2.1 0-4.1 0-6.2-.2-.8-.1-1.5-.2-1.6-.4 0-.1.1-.2.5-.2h-.2l-.3-.1c-.3-.1-.5-.1-.7-.2l-.2-.1c-.3-.2-.7-.3-.9-.5h.1-.1c-.2-.1-.3-.1-.3-.2v-.1c0-.1.1-.1.3-.1l.1-.1c-.1-.1-.2-.1 0-.2-.1 0-.1-.1 0-.1h.1s-.1 0-.1-.1h-.1c-.2 0-.2 0-.3-.1-.1 0-.2-.1-.2-.1-.1-.1-.1-.1-.1-.2h-.2-.1.2l.2.1h.1-.1c.2 0 .2 0 .3.1h.2c.2 0 .2 0 .4.1H20.7h-.1c-.6-.1-1-.2-1.5-.3-.1 0-.2 0-.2-.1h.2c1 .1 2.3.2 3.3.4.3 0 .6.1.8.1h.2l-.2-.1h-.1l-1.8-.3c-.3-.1-.6-.1-.9-.2-.1 0-.1 0-.1-.1h.2c1.1.1 2.3.3 3.1.5.2 0 .4 0 .5.1H24c.1 0 .2.1.4.1v-.1c.7.1 1.5.1 2.2.2h.1c.3 0 .6-.1.9 0h-.3.8c.7 0 1.5.1 1.9.2 1.4 0 2.8 0 4.2-.1h.1c-1 .1-2 .1-3.1.1h6.5c.9 0 1.8 0 2.8-.1 1.4 0 2.7 0 4 .1.2 0 .3 0 .4.1 0 0-.1.1-.3.1-2.9-.1-5.7 0-8.6 0h-.9l-.1.1h1.1c1 0 2-.1 3.1 0 .7 0 1.4.1 2.1.1.9 0 1.7 0 2.6.1h.1-1.8c.1 0 .2.1.1.1 0 0-.1.1-.2.1h.3l-1.7-.1h-2c.1 0 .2.1.2.1h.3c1.9-.1 3.9 0 5.9.1h0c-.6 0-1.2-.1-1.8-.1h-.1c-1.1-.1-2.2-.1-3.3 0 1 0 2 0 3 .1h.4-.1c.2 0 .3.1.3.1s-.2.1-.4 0c-.5 0-1.1 0-1.6-.1h-.4c.8 0 1.6.1 2.5.2h0c-1.4 0-2.9-.1-4.3 0-.5.1-1 .1-1.5.2h.2c1.6 0 2.9-.1 4.5-.1h0-2.2c-.6 0-1.2 0-1.8.1 1.2 0 2.3-.1 3.4 0h.1c.6.4.7.4.9.5 0-.1 0-.1 0 0 .1 0 .1 0 0 0zm-20.3-1.3c.1 0 .1 0 .2.1 0 0-.1-.1-.2-.1zm-1.8 0c-.1 0-.1-.1 0 0-.1 0 0 0 0 0zm11.4 0h-1.8H32.2zm-10.8-.4c.2.1.3.1.4.2h.3c.3 0 .6.1.9.1h.2c-.3 0-.6-.1-.9-.1-.3-.1-.6-.1-.9-.2zm-2.1-.2zm-.1 0zm.4.1s-.1 0 0 0zm.1 1l.2-.1-.2.1z"/></g></g></svg>