<svg xmlns="http://www.w3.org/2000/svg" viewBox="0 0 64 64"><path d="M60.8 30.9c-1.2-1.4-2.5-2.8-3.9-4-.1-.1-.2-.1-.3-.1-1.2-1.2-2.4-2.3-3.6-3.5h-.1c-6.4-6-12.9-11.9-19.3-17.8-.2-.2-.6-.2-.8.1-.1 0-.2.1-.3.1C22.8 13.5 13.1 21.2 3.4 29c-.1.1-.2.2-.2.4l-.1.1c-.5.3-.2 1 .3.9.1.1.2.2.4.2 2.4-.1 6.7 0 9 .2 0 1 .1 2 .2 3V35c-.1.1-.1.1-.1.2-.1 1.2.2 2.4 0 3.6 0 .1-.2 2.1-.2 2.5v2.5c.1 3.3.1 2.5.4 5.4-.2 2.4-.2 4.7 0 7.1V56.6c0 .2.1.3.2.4v.2c0 .6.1-1 .3-.6-.4.2-.3.9.2.9h.2c.3 0 .5 0 .8.1.1.1.2.2.4.2 1.9.1 2.9.2 4.8.3h.1c1.1.2 2.2.3 3.3.3h-.2 2c1.7-.1 3.4-.2 4.7-.3 1-.1 2-.1 3-.2 1.3-.1 2.6-.1 3.9-.2 2.3-.1 4.8-.2 7.1-.4h3.2c.1 0 .2 0 .3-.1h.1c1.1 0 1.2-.4 2.4-.1l.1.1h.1c.2.1.5 0 .7-.2v-.1c.1-.2.1-.4-.1-.6.1-1.2.1-.3.2-1.5 0-.2.1-.3.1-.5v-.4-.7c0-.4-.1-.7-.1-1V52c0-6.4-.4-8.8-.3-15.1v-.2-.9c0-1.5.1-2.9.2-4.4l9.7.2c.7.3.8-.6.3-.7zM48.3 56.3c-.1 0-.3.1-.4.1h-5c-.2 0-.3.1-.4.2-1.1 0-2.3.1-3.4.1h-2.9l-2.2-.1h.8c.5 0 1-.1 1-.2 0 0-.1-.1-.2-.1 1.9-.1 3.9-.2 5.8-.4.6 0 1.1-.1 1.6-.1h.9l1.3.1c.5 0 1 .1 1.8 0h.4l.3-.1s.2 0 .3-.1c.1 0 .2-.1.2-.1l.1.7c.1 0 .1 0 0 0zm-.5-.6c-.4.2.3.3 0 .5-.1-.1.8-.3.7-.4.1.1.1.2 0 0 .1-.1-.8-.2-.7-.1.2-.1.5-.1.7-.1.1 0-.7 0-.7.1.1-.1 0-.1 0 0zm.2-6.3v-.5c.1 0 .1-.2.2-.4V48.2v-.3-.5c0-.4.1-.7.1-1.1v.9c0 .4-.1.9-.1 1.3v.1c-.1.4-.1.9-.2 1.3v-.5zm.7.6c0 .6-.1 1.2-.1 1.9v0c-.2-.7-.3-1.4-.5-2 .1-.8.2-1.5.3-2.3 0 .7 0 1.5-.1 2.2v.2s.1-.1.1-.2c.1-.5.2-1 .2-1.6 0 .5 0 1.1.1 1.4-.1.2 0 .3 0 .4zm1.3 5.4c-.1.2-.2.4-.3.5l-.1.1v-.8-.1c0 .1.1-.3.2-.7.1-.3.1-.4.1-.4.1-.7 0-1.1 0-1.5 0 0 .1 0 .1-.1v3zm.1-3.7c0 .1 0 .2-.1.3 0 .2-.1.3-.1.4 0-.1-.1-.3-.1-.4 0-.1-.1-.2-.1-.2v-.3c0-.8.1-1.6.1-2.4v-1 .8c0 .5 0 1-.1 1.5v-.1c0-.2 0-.4.1-.6v.1L50 51c.1.2.1.4.1.7zM45.5 18c-1.9-1.7-3.9-3.5-5.8-5.2-.3-.3-.8-.7-1.4-1.1-.7-.8-1.4-1.5-2-2.3 5.3 4.9 10.7 9.8 16 14.7h.1l.8.8c-2.6-2.4-5.1-4.7-7.7-6.9z" fill="#3a3d3c"/></svg>