<svg version="1.1" id="Calque_1" xmlns="http://www.w3.org/2000/svg" x="0" y="0" viewBox="0 0 64 64" xml:space="preserve"><style>.st0{fill:#3a3d3c}</style><g id="XMLID_4_"><g id="XMLID_7_"><path id="XMLID_8_" class="st0" d="M37.6 41.4h.1c0-.1 0-.1-.1 0-1.6-.6-3.3-.8-5-.7-.1 0-.1 0-.1.1h.1c1.7-.1 3.4.1 5 .6z"/><path id="XMLID_93_" class="st0" d="M17 59h-.2v.1c.1-.1.2-.1.2-.1z"/><path id="XMLID_112_" class="st0" d="M23.2 25c1 1.3 2.4 2.7 4.1 3.6 1.7 1 3.5 1.4 5.3 1.6.9.1 1.8 0 2.7-.1.4-.1.9-.2 1.3-.3l.3-.1.2-.1h.1l.5-.2c1.9-.7 3.1-1.5 4.5-2.7 2.6-2.4 4.3-5.4 4.4-8.7.1-1.6-.2-3.2-.7-4.8-.5-1.5-1.2-3-2.2-4.4-1-1.2-2.2-2.3-3.5-3-.7-.4-1.3-.7-2.1-.9-.8-.3-1.6-.4-2.4-.5-1.7-.2-3.6.1-5.2.9-.8.4-1.4.8-2 1.3-.6.5-1 1-1.5 1.5-.5.6-.9 1.2-1.2 1.8-.6.3-1.2.9-1.8 1.8 0 0 0 .1-.1.2 0 .1-.1.1-.1.2l-.1.2v.1c-.1.2-.2.3-.2.3l-.3.9c0-.2.1-.4.1-.6v-.3-.2c0-.2-.1-.3-.1-.4l.1-.2v-.1c0-.1 0-.1-.1-.2s-.2-.2-.3-.1c-.1 0-.1 0-.2.1l-.1.1c-.2.4-.1.1-.1.2-.1 0-.2.1-.3.2-.2-.1-.2-.1-.3 0-.1.1-.2.3-.3.5-.1.2-.2.3-.3.5-.1.2-.1.3-.2.5-.6 1.3-.8 3.1-.6 4.9.4 2.3 1.2 4.5 2.7 6.5zm6.6-17.9c.7-.5 1.6-.9 2.6-1.1 1-.2 1.9-.3 2.9-.2.8.1 1.6.3 2.4.6.1 0 .2.1.2.1.6.3 1.2.7 1.7 1.1-.2-.1-.4-.3-.6-.4-.4-.2-.8-.3-.9-.2 0 0 0 .1.1.2-1.5-.6-3.4-.9-5.1-.4-.5.1-1.1.3-1.3.4-1.1.3-1.8.8-2.6 1.3-.3.2-.6.4-.8.7-.3 0-.7.1-1 .2.7-.9 1.4-1.6 2.4-2.3z"/><path id="XMLID_125_" class="st0" d="M9.3 37c0 .1 0 .1 0 0 0 0 .1 0 0 0z"/><path id="XMLID_126_" class="st0" d="M7.8 37.7c-.1 0-.3.1-.4.2 0 0-.1 0-.1.1.1 0 .2-.1.3-.1.2-.1.3-.1.2-.2z"/><path id="XMLID_127_" class="st0" d="M7.3 38h-.1.1z"/><path id="XMLID_128_" class="st0" d="M5.3 53.9c-1-.9-1.7-1.9-2.3-3 0-.1-.1-.1-.1-.1v.1c.6 1.1 1.4 2.1 2.4 3 .9 1 2.2 1.7 3.5 2.2H9s-.1 0-.1-.1c-1.4-.4-2.7-1.1-3.6-2.1z"/><path id="XMLID_129_" class="st0" d="M4.9 40.5c0 .1 0 .1 0 0 .1 0 .1-.1.2-.1 0 0 0-.1 0 0-.1 0-.2.1-.2.1z"/><path id="XMLID_23_" class="st0" d="M61.8 51.9c0-.1-.1-.3-.1-.4-.3-1.2-.9-2.4-1.5-3.5-.2-.5-.5-1.1-.9-1.6-.6-.9-1.3-1.7-2-2.5s-1.4-1.5-2.1-2.1c-1.5-1.4-3.1-2.7-4.9-3.8-2.7-1.7-5.4-2.9-8.5-3.9-3-.8-6.2-.9-9.2-.4-2.5.4-4.3 1.4-6.1 2.4-.1 0 0 .1 0 .1.1 0 .1 0 .2-.1 3-1.4 6.6-2.1 10.3-1.7.4.1.8.1 1.2.2h.1c.4.1.7.2 1.1.3l-.4-.1c-.3-.1-.5 0-.5 0s0 .1.1.1c-.9-.1-1.9-.1-2.8-.1h-.7c-1-.1-2.1-.1-3.2-.1h-.3c-.4 0-.7.1-.8.2l-.1.1c-2.3.5-4.6 1.3-6.4 2.6l-.1.1s-.1 0-.1.1c-.2.2-.4.3-.7.5 0 0-.1.1 0 .1 0 0 .1 0 .2-.1.2-.2.5-.4.7-.5v-.1c.1 0 .2 0 .2-.1 1.9-1.1 4-1.9 6.3-2.3-1.1.3-2.2.6-3.3 1.1-.9.4-1.7.8-2.6 1.3-1.7.9-3.3 1.9-4.9 3.1-.1-.2-.2-.3-.3-.5v.2c-.2-.3-.2-.5-.5-.8l.1.3c-.2-.3-.5-.7-.8-1.1-.7-.9-1.7-1.8-3-2.4h-.1l-.8-.4c-.1-.1-.3-.1-.4-.2-.8-.4-2-.7-3.2-.7l.7.1c-.4 0-.7-.1-1.1 0h.1c-1.3-.1-3.1.4-3.8 1.1-.4.4-.5.5-.1.5-.1 0-.2.1-.2.1-1.2.7-2.6 1.5-3.6 2.9-1 1.3-1.6 3-1.6 4.6-.1 2.4.6 4.4 1.8 6.2.7 1.1 1.4 2 2.4 2.9 1 .8 2.2 1.5 3.5 1.8.2.1.5.1.8.2.3 0 .5.1.8.1.7.1 1.4 0 2.1-.1 0 .1-.1.1-.1.2-1.1.2-2.1.2-3.2 0h-.3s.2.1.4.1c1.1.2 2.1.2 3.1 0 0 .2.2.4.5.4 1 0 2 .1 3 .1h.1c-.2 0-.3 0-.5.1-.2 0-.3.1-.4.2-.7 0-1.4-.1-2.1-.1h-.1s.1 0 .1.1c.7.1 1.3.1 2 .2-.1.1-.1.3 0 .4-1.1 0-2.2-.1-3.3-.2-.6-.1-.6.9 0 1 3 .3 6.1.3 9.1.1.7.1 1.4.2 2.1.2 1.8.1 3.5 0 5.2-.1.6 0 1.2.1 1.8.1-.1 0-.1.1-.1.2h-1.6c-5-.1-9.7.2-14.6.2-.3 0-.5.1-.5.2s.3.2.6.2c2.3.2 4.5.1 6.8 0 1.7-.1 3.2-.1 4.8-.2 1.9-.1 3.8 0 5.6 0h1.2c1.3 0 2.5.1 3.7.1 3.8-.2 7.6-.3 11.5-.2 2.6.1 5.2 0 7.8-.1h.6c.8 0 1.5-.1 2.3-.1.2 0 .5.1.7.1.2 0 .3-.1.4-.2.8 0 1.5-.3 2.1-1.1.2-.2.3-.4.3-.7.2 0 .3-.2.3-.3.6-1.2.3-2.9-.3-4.6zm-50.1-15c-.6.1-.8.1-1 .1H10.1c-.1 0-.2 0-.2.1h-.1l-1 .2s-.2.1-.4.1c-.2.1-.2.1-.6.2 0 0 .1 0 .2-.1l-.2.1h0l-.1.1-.4.1s-.1.1-.3.2l-.1.1-.1.1H7c.1 0 .1 0 .4-.2v.1c0 .1 0 .1.4.1h.1c-.7.4-1.5.8-2.2 1.3-.7.8-1.5 1.5-2 2.5-1 1.8-1.1 4-.5 5.8.1.2.1.4.2.6v.4c-.5-1.3-.8-2.7-.7-4.1.2-1.2.6-2.3 1.3-3.3.1-.1.2-.3.1-.3l-.2.2c-.2.2-.3.5-.5.8.1-.2.1-.4.1-.5 0 0-.2 0-.3.2.6-1.2 1.6-2.3 2.6-3 .2 0 .2-.1.2-.1s-.1 0-.2.1c-.8.5-1.5 1.2-2.1 2-.6.8-1 1.7-1.2 2.6-.5 1.4-.6 3-.2 4.6.3 1.2.8 2.2 1.4 3.1.6.9 1.3 1.8 2.2 2.5.6.6 1.3 1 2 1.4h-.2c-.7-.3-1.3-.7-1.8-1.2C4.6 52.6 3.7 51.4 3 50c-.7-1.4-1.2-3-1.1-4.7 0-1.7.5-3.3 1.5-4.7 1-1.4 2.4-2.3 3.7-3.1.3-.1.4-.3.5-.4.2 0 .3-.1.5-.1 0 0 .1 0 .2-.1-.6.2-1.1.6-1.3.8-.2.1 0 .1 0 .2s.5-.1 1-.3c.1-.1.3-.1.4-.2.7-.2 1.4-.3 2.1-.4h.4c.1 0 0-.1-.1-.1-.5 0-1 0-1.5.1h-.1-.1s.1 0 .1-.1h.1s.1 0 .2-.1c.9-.1 1.7-.2 2.5-.1v.1h.1c-.1.2-.2.1-.4.1zm4.8 1.8c-.1 0-.2-.1-.1 0-.5-.4-1.1-.7-1.8-.9-.2-.1-.5-.2-.7-.2-.2-.1-.5-.3-.9-.4.6.1 1.3.3 1.9.6.7.3 1.3.7 1.8 1.1l-.2-.2zm1.7.6l-.4-.4.1.1c-.5-.5-1.1-.9-1.6-1.2-.9-.6-1.9-1-3-1.2.3 0 .6.1.9.1 1.4.5 2.6 1.2 3.7 2.1l.1.2.2.3zm13.7-3.6h.4c-.4.1-.8.2-1.1.4-1.5.2-3 .6-4.4 1.2 1.5-.9 3.2-1.5 5.1-1.6zm20.5 23.2c-.5-.1-1.1-.1-1.6-.2h.2c.1 0 .2 0 .1-.1.5 0 1 .1 1.5.1h.6c.2.1.4.2.7.3-.5 0-1.1 0-1.5-.1z"/><path id="XMLID_138_" class="st0" d="M7.8 37.8z"/></g></g><path id="XMLID_50_" d="M16 45.5c-1.2-.2-2.3-.2-3.5-.2v-3.6c0-1.3-2-1.3-2 0v3.6c-1.4 0-2.8.1-4.1 0-1.3 0-1.3 2 0 2 1.4 0 2.7 0 4.1-.1v4.1c0 1.3 1.9 1.3 2 0v-.1-.1-3.8c1 0 2 .1 3 .2 1.2.1 1.8-1.9.5-2z" fill="#fff"/></svg>