<svg version="1.1" id="Calque_1" xmlns="http://www.w3.org/2000/svg" x="0" y="0" viewBox="0 0 111 21" xml:space="preserve"><style>.st1{fill:#19866f}</style><g id="XMLID_1_" opacity=".15"><path id="XMLID_46_" class="st1" d="M96.3 11.6v0z"/><path id="XMLID_45_" class="st1" d="M87.3 12.3c0 .1 0 .1 0 0z"/><path id="XMLID_44_" class="st1" d="M101.6 10.6c.1-.1.2-.1.3-.1l-.3.1z"/><path id="XMLID_43_" class="st1" d="M69 13.6h0z"/><path id="XMLID_42_" class="st1" d="M79.8 12.4c0-.1-.1-.1-.1-.1.1 0 .1.1.1.1z"/><path id="XMLID_41_" class="st1" d="M103.7 7.1l-.1.2s0-.1.1-.2z"/><path id="XMLID_40_" class="st1" d="M109 6.6s0 .1 0 0c0 .1 0 0 0 0z"/><path id="XMLID_39_" class="st1" d="M107.2 7.9h-.2.2z"/><path id="XMLID_38_" class="st1" d="M107 7.9z"/><path id="XMLID_37_" class="st1" d="M1.1 10.3c-.1 0-.3-.2-.4-.3l.4.3z"/><path id="XMLID_36_" class="st1" d="M52.2 15.1z"/><path id="XMLID_35_" class="st1" d="M1 8.6H.9 1z"/><path id="XMLID_34_" class="st1" d="M100.9 7.1c-.2-.2-.4.1-.5-.1.2.1.4-.1.5.1z"/><path id="XMLID_33_" class="st1" d="M48.1 7.8H48h.1z"/><path id="XMLID_32_" class="st1" d="M1 8.6h0c.1 0 .1 0 0 0z"/><path id="XMLID_31_" class="st1" d="M34.1 15.4z"/><path id="XMLID_30_" class="st1" d="M33.1 15.6c.1 0 .1.1.2.1-.1 0-.2 0-.2-.1z"/><path id="XMLID_29_" class="st1" d="M.7 10l-.2-.1c.1 0 .2.1.2.1z"/><path id="XMLID_28_" class="st1" d="M22.8 14.1c.1 0 .1.1 0 0 .1.1.1.1 0 0z"/><path id="XMLID_27_" class="st1" d="M80.5 12.3s.1 0 0 0c.1 0 .1.1 0 0z"/><path id="XMLID_26_" class="st1" d="M73.4 7.2z"/><path id="XMLID_25_" class="st1" d="M73.8 7.4c-.1.1-.3-.1-.4-.2.2 0 .3 0 .4.2z"/><path id="XMLID_24_" class="st1" d="M72.6 7.4c.1-.1.1-.1 0 0 .1-.1.1-.1 0 0z"/><path id="XMLID_23_" class="st1" d="M80.2 6.7v.1-.1z"/><path id="XMLID_22_" class="st1" d="M78.7 6.7l-.1.1c.1 0 .1-.1.1-.1z"/><path id="XMLID_21_" class="st1" d="M68.9 7z"/><path id="XMLID_20_" class="st1" d="M54.8 6.7c1.4 0 3.2.3 4.6 0 .3.4.8.4 1.2.4v-.5l.4.1c.1-.2-.3-.1 0-.3l.2.3c0-.2.9-.2.3-.5l1.4-.1c.3 0 .2.4.6.3.1-.2-.1-.1-.1-.3 1-.5 1.3.9 2.3.6l-.1-.1c.1.1.4.1.4.2-.1.6-.2-.3-.5.1.1.5.4.2.4.6.2-.2.4.1.6.1.3-.3.8-.1 1.1-.5.2.1.4.6.8.6.2-.4-.1-.3.3-.5l.1.3c.2-.3.1-.3.1-.5.3 0 .3.3.7.2l-.2-.2c.3.1.4 0 .8 0 0-.2-.2-.1-.3-.1.1-.5.3.1.4 0 0 .1-.3.2-.1.4.2-.1.4.3.6 0l-.2-.2c.4.2.2.3.7.2v-.1c.3.3.7 0 1.1-.1l-.1-.1c.2.1.3.3.4.3-.2.2-.2.2-.2.5.3-.5.5.5 1.1.2 0-.2-.2-.3-.3-.2-.2-.4-.3-.8-.6-1 .2.2.4.2.3 0l.1.4h.3c.1.3-.2.4.1.6.3.1.2-.4.2-.3.5.1.2.4.6.3 0 0-.1-.1-.2-.1.3-.2.8 0 .8-.5.1 0 .1-.1 0-.1v.1c-.4-.4.3.1.2-.4 0 .3.4.2.6.1l-.1.3c.7.9-.1-.6.6-.5.4.2-.2.1.1.3.3-.1.4-.3.8-.2.1-.1.3-.3.4-.6.3.1.8-.2.9.2-.4.2-.5-.4-1 .1l.1.3c.3 0 .8.1 1 0 0 .1-.1.2 0 .2.5.1.6.5 1.1.4.1-.3-.2-.3-.4-.3.3-.3.3 0 .8-.1 0-.3-.3 0-.4-.2l.5.1v-.1c.1.5.4 0 .7.1.8 0 .9.6 1.3 1 .1-.1.2-.2.1-.4-.2.2-.2 0-.2-.1.3.1.6-.4.4-.6.6.1.1.2.3.4h.6c-.1.2-.3.3 0 .5.2.1.4 0 .7 0 0-.1.1-.4-.1-.3.2-.1.4-.1.5.1-.4.1.5.1.2.5l.4-.2c-.1 0-.1-.2-.2-.1.1-.3.3.1.4.2.1-.1.5-.1.5-.2.1.1.4 0 .4-.1.2.1 0 .2 0 .3h.6c0-.2.1-.7 0-.8.2.2 0 .6.4.6-.2-.4.4-.3.2-.7.2-.3.7-.2 1-.1.2.2-.3 0-.3.3.8.2.8 1 1.4.9l-.2.1c.4.2.3.2.5.4-.1-.4.5-1 1.1-.9 0 .2-.3.4-.3.7l.4.1s0-.1-.1-.1c.3.2.7-.5.8 0l.4-.7-.1.3c0 .2.4.3.5.3.4.2.5.1.8-.2-.1.2-.3.5.1.6 0-.6.7-.2.7-.5.1 0 .3-.2.4.1v-.4c0 .5.5.5.8.6-.1-.7.4 0 .5-.6.1.5.6.2.7.6.3 0 .2-.5.3-.6V8c.1-.2.6-.3.9-.5l.3.4.1-.2c0 .1.2.1.1.3h.1c.1.5.2.1.6.3.1-.1 0-.2 0-.3.1 0 .1-.3.1-.4-.1.1.7.8.3 1 0 .2.3.3.4.2v-.4l.2.4c.2 0 .3-.3.5-.3-.2 0-.6-.7-.1-.8-.3 0-.4-.2-.6-.3.1 0 .1-.1 0-.2.4.1.2.2.6.2-.1-.4 0-.5.3-.7l-.2.3s0 .1.1.1c-.1.1-.1.1-.1.3.1 0 .5.4.5.2-.3.7.8.3.6.7.1.1.3.1.3-.1-.4-.2.2-.5.1-.7.1.1-.2.3 0 .4.2 0 .3-.3.4-.4l-.2-.2.3-.2c.1.2-.2.4.1.4.1-.1.3-.1.3-.2-.2-.2-.2-.6-.4-.6.2 0 .8-.1.6.3l.2-.1c-.1.2-.4.6 0 .5v-.1l.4.2.1-.2c0 .1.1.2.2.1 0-.1.1-.2.1-.3.3-.1.4.1.4.2.2 0 .3-.1.1-.3.3-.1.7-.2.9-.4.4.1-.1.1.2.3.1-.7 1.1-.5 1.7-.6 0 .6.2 0 .4.5-.2-.1.4-.6-.1-.6h.3c.1-.4-.6-.1-.4-.6.3-.1.7.5 1.1.2-.2-.4.3 0 .1-.4-.1-.1-.2 0-.3 0v-.1c.7-.3.3.4.8.6.5-.1.3-.4.3-.6.1-.1.3-.1.5 0-.3-.2-.5.4-.3.6.1-.5.7-.2.9-.1-.5.7-.5.2-.9.8-.1-.1-.2-.5-.5-.3.3.1 0 .2 0 .3 0-.3-.3 0-.4-.1-.1.2.4.5 0 .7l-.2-.5c-.1.1.2.4-.2.3.2.2.1.5.5.4-.4.6-.9 0-1.3-.1l.1.1c-.1-.1-.3-.1-.4-.1-.2.2.3.2.2.4l-.4.1c-.1 0-.3-.1-.3.1.2.1.3.3.4.4l-.5-.3c.1.2-.3.4.1.5l-.7.1V9c-.2 0-.2-.1 0-.2-.2.1-1.2-.4-.9.3-.6-.2-.8 0-1.4-.1.6.2-.5.6.1.6-.3.2-.4-.2-.7-.2-.2.2 0 .6.3.6l-.3-.1v.1l-.3-.2c-.2.3 0 .4-.2.5l-.1-.3-.1.2c0-.2-.1-.2-.3-.2v.1h-.3c.3.2-.2.1-.1.3-.2.1-.2.1-.6.1v-.2c-.5-.1 0 .3-.4.4v-.3c-.5.5-1-.1-1.4.2.3 0 .2.4.2.3-.4-.1-1 .1-1.4-.2-.1.4-.1.5-.5.7-.3 0-.3 0-.5-.3-.3.2-.8 0-.8.3-.1-.2-.3.1-.4-.1v.1-.3c-.6.9-.9-.1-1.4.5l.1.1-.2-.1c0 .1.1.2.1.3l-1 .1.2-.2c-.2 0-.3-.3-.6-.1.4.4-.3 0-.4.3l.2.1c-.3 0-.3 0-.3-.3-.4-.1-.3.5-.6.2h.2c.1-.2-.1-.4-.3-.4 0 0-.2.2 0 .2-.3-.1-.7 0-.9-.1-.2.1-.1.3 0 .3-.6-.3-.3 0-.9-.2v.2l-.1-.3-.3.3.1-.2c-.2 0-.3-.2-.6-.1l.1.2c-.6-.2-.7.3-1.2 0 0 0 0 .1.1.2-.5-.4-.4.4-.9-.1v.2l-.2-.2v.3l-.2-.3-.2.3-.1-.2c-.3.6-.6.1-.9.5l.1-.4c-.8-.9-1.9.4-2.9 0v.3l-.4-.4c-.2.2.1.3.1.4-.4-.2-.2-.5-.7-.6-.3.2.1.2.2.3-.5-.2-1.2-.3-1.5-.2v-.1c-.3-.1-.7 0-1.1 0 0 .1.1.2.2.2-.1 0-.3.1-.4 0l.1.3c-.3.1-.8-.2-.8.1 0-.1 0-.4-.2-.3-.1.5-.6-.2-1 .1 0 .1.3.1.2.1-.2.1-.4-.1-.5-.2l.1.2-.9-.2c-.1.5-.8 0-.8.3-.3 0 .3-.2-.1-.3-.1.2-.4-.1-.3.2h-.3l.2.3c-.2-.1-.4-.3-.5-.6-.2.2-.5.1-.6.3l.1.1c-.6-.1-1 .9-1.5.4 0 0 0 .1.1.1h-.4l.1.2-.7-.3v.2c-.4.1-1.1.1-1.6 0l.1.1c-.6-.2-.6.2-1 .1 0 0 0 .1.1.1h-.4l.1.1c-.3-.3-.8.5-.6.2-.2-.1-.5-.3-.5-.5-.4 0-.1.2-.3.4-.3 0-.4-.2-.8 0v.2c-.2 0-.3-.1-.6-.1l.1.1c-.5-.3-.5.5-.9-.1-.2.1-.5.1-.5.4-.6-.2-1-.2-1.6-.3 0 .5-.1 0-.4.3v-.3c-.8 0-1.6.8-2.5.7v.3l-.2-.3c-.9.2-2.2.4-2.9.5-.3-.1-.7-.4-1.1-.3-.7-.1-1.4-.2-2.2.1.1.1 0 .2.1.3-.2-.3-.4 0-.6 0l.2-.2c-.2-.2-.5 0-.6.2l-.8-.1-.1.1-.1-.1-.2.4c-.1-.1-.5-.1-.7-.5 0 .1-.3.2-.1.3l-1.2.2.2-.1c0-.3-.4-.4-.6-.3.3.2 0 .4-.1.6-.2-.1.1-.2 0-.4-.2-.2-.7-.2-.8-.1l.1.1c-.3-.1-.4.4-.7.4-.3-.2-.4 0-.4-.5-.4-.1-.1.3-.2.4-.2-.2-.7-.1-.8.2-.2-.7-1 .3-1.1-.3l-.3.3c0-.2-.1-.5-.3-.6-.2.2-.2.4-.2.6l-.2-.6c-1.3.6-3.1.3-4.6.8-.7-.1-1.5-.4-2.3-.4l.1.1-.6.1.6-.2c-.2-.1-.3-.2-.5-.2-.9.2-2 .5-3 .1-.6-.7-.5.6-1.1 0 .1.1.1.2.1.2-.7-.3-1-.4-1.7-.9 0 .7-.5-.1-.4.3v-.3c-.2.1-.5.2-.5.4l-.3-.4-.1.3c-.4 0-1.2-.3-1.5.2-.9-.5-2.5-.6-3.8-.7-.1-.2-.5-.3-.8-.4l-.3.3c-.3-.1-.5-.6-.8-.4v.1c-.3-.1-.6 0-.8-.3-.3 0-.7.1-.6.4 0-.5-.7 0-.7 0s-1-.1-2.6-.2c-1.6-.2-3.7-.4-5.9-.7-4.5-.7-9.3-1.5-11.2-3-.1-.2-.4-.4-.3-.7-.3-.1-.4.3-.4.1.4-.2-.1-.7.3-1l-.3-.1c0-.2.3.2.3-.1V9c.2-.1.3-.2.4-.4.2.2.3.9.7.6h-.1c.4 0 .2-.3.3-.4h-.1l.3-.2c-.2.1-.6-.3-.4-.3.5-.1-.1.1.2.2.2 0 .2-.2.2-.4h.4c0-.2-.2 0-.1-.2l.4.3c.1-.6.5.3.7-.2-.3-.2 0-.2 0-.4l.8.1c.1-.1-.2-.2-.1-.2.2-.2.2.2.3.2.1-.2.6.1.6-.3.6-.3.3.5.8.3.1-.2-.4-.1-.2-.3l.5.1c0-.1-.1-.4-.3-.4 1.4-.2 2.3-1.3 3.6-.9.3-.2 0-.1-.1-.3.9.5 1.4-.5 2.2-.3v.2c1.2-.6 2.5 0 3.8-.1l-.2.1c.1.2.4.3.6.4 0-.1-.1-.5.3-.4-.1.2-.3.2-.2.4 1.2-.4 3.4 0 5.2 0 2.3.5 4.9.4 7.2.9-.3-.1-.3.5 0 .4.8-.9 1.2.3 2-.3 1.3.5 2.5-.3 3.7.6v-.3c.2-.1.2.1.4.1v-.1c.5-.1 1 .2 1.3.1v.3c.3 0 .2-.2.4 0v-.2l.3.3c0-.5.8 0 1-.2.3.1 1 .4 1.5.3.1-.3.8-.3 1.2-.4.8.1 2 .2 3 0v.4h.3v-.2c.2-.4.6.1.8-.1-.1.3-.2.1-.3.1-.2.2 0 .5.3.3v-.1l.2.2c0-.3.2-.4.2-.7.9 0 1.5.5 2.4.3-.1-.3.7.1.5-.4.6.2-.1.4.2.8.2 0 .3.1.3-.1-.1-.1.1-.3 0-.4h.4l-.1-.1c.8.3 1.3-.4 2-.2.1.2-.3.1-.2.3.7.3.6-.4 1.2-.2l-.2-.3c.2.2.3.4.7.2 0-.3-.3-.2-.5-.4.2 0 .8 0 .7.3.3.1.4-.2.5-.3 0 .1-.2.2-.1.4.4-.2 1-.2 1.4-.3.1-.1.1-.2.1-.2.4.4.3-.3.8-.3z"/><path id="XMLID_19_" class="st1" d="M80.4 6.7h-.2c0-.1 0-.1-.1-.2l.3.2z"/><path id="XMLID_18_" class="st1" d="M71.2 7.2s-.1-.1 0 0c0-.1 0 0 0 0z"/><path id="XMLID_17_" class="st1" d="M68.9 6.8c.2.1 0 .1 0 .2v-.2z"/><path id="XMLID_16_" class="st1" d="M85.7 7.6s-.1-.1 0-.1v.1z"/><path id="XMLID_15_" class="st1" d="M99.5 7.4c-.1 0-.1 0 0 0-.1 0-.1 0 0 0z"/><path id="XMLID_14_" class="st1" d="M98.8 8h-.2c.1-.1.1-.1.2 0z"/><path id="XMLID_13_" class="st1" d="M82.2 7.4c-.1 0-.1 0-.2-.1.1 0 .1.1.2.1z"/><path id="XMLID_12_" class="st1" d="M98.5 7.9l-.2.1v-.1h.2z"/><path id="XMLID_11_" class="st1" d="M99.7 7.3c-.1 0-.2 0-.2.1 0-.1.1-.1.2-.1z"/><path id="XMLID_10_" class="st1" d="M90.9 8.3c-.2-.1-.1-.1 0 0z"/><path id="XMLID_9_" class="st1" d="M97.6 7.4v.1l-.1-.1z"/><path id="XMLID_7_" class="st1" d="M100.5 7.1h-.1c0-.1 0-.1.1 0 0-.1 0-.1 0 0z"/><path id="XMLID_6_" class="st1" d="M93.8 7.9c.1.1.1.2.1.3-.1 0-.1-.1-.1-.3z"/></g></svg>